<svg height="800" width="800" xmlns="http://www.w3.org/2000/svg" viewBox="0 0 512.021 512.021" xml:space="preserve"><path fill="#fff" d="M490.421 137.707c-.085-1.003-.149-2.005-.555-2.987-.107-.256-.32-.427-.448-.683-.277-.533-.597-.981-.96-1.472-.725-1.003-1.536-1.835-2.517-2.517-.256-.171-.363-.491-.64-.64l-224-128a10.65 10.65 0 0 0-10.581 0l-224 128c-.256.171-.363.469-.619.64a10.3 10.3 0 0 0-2.645 2.624c-.299.427-.597.811-.832 1.28-.149.277-.384.469-.512.768-.469 1.173-.619 2.389-.661 3.584 0 .128-.107.256-.107.384v234.667c0 .213.149.405.171.619.085 1.493.32 2.987 1.045 4.352.043.085.128.107.171.192.277.491.768.811 1.131 1.259.789.981 1.557 1.941 2.603 2.603.107.064.149.192.235.235l224 128c1.664.939 3.477 1.408 5.312 1.408s3.648-.469 5.291-1.408l224-128c.107-.064.149-.192.256-.256.981-.597 1.664-1.493 2.411-2.389.427-.512 1.003-.896 1.323-1.472.043-.064.107-.107.149-.171.576-1.109.683-2.325.853-3.52.064-.491.384-.939.384-1.451V138.688c-.002-.341-.236-.64-.258-.981m-34.901-.726-78.251 31.296-86.058-125.184zM256.011 29.504l97.067 141.184H158.944zm-35.264 13.611L134.71 168.278l-78.23-31.297zM42.677 154.432l80.768 32.32L42.677 332.16zm95.958 48.96 98.325 178.773-187.712-17.877zm106.709 279.573-165.12-94.336 165.12 15.573zm10.667-110.421-99.285-180.523h198.571zm10.666 110.421v-78.571l165.035-15.723zm8.32-100.608 98.411-178.901 89.365 160.853zm194.347-50.154-80.811-145.451 80.811-32.32z"/></svg>