<!DOCTYPE svg PUBLIC "-//W3C//DTD SVG 1.1//EN" "http://www.w3.org/Graphics/SVG/1.1/DTD/svg11.dtd">
<!-- Uploaded to: SVG Repo, www.svgrepo.com, Transformed by: SVG Repo Mixer Tools -->
<svg fill="#ffffff" height="800px" width="800px" version="1.1" id="Layer_1" xmlns="http://www.w3.org/2000/svg" xmlns:xlink="http://www.w3.org/1999/xlink" viewBox="-51.2 -51.2 614.40 614.40" xml:space="preserve" transform="matrix(1, 0, 0, 1, 0, 0)" stroke="#ffffff" stroke-width="0.00512">
<g id="SVGRepo_bgCarrier" stroke-width="0"/>
<g id="SVGRepo_tracerCarrier" stroke-linecap="round" stroke-linejoin="round" stroke="#CCCCCC" stroke-width="4.096"/>
<g id="SVGRepo_iconCarrier"> <g> <g> <path d="M495.367,218.393h-54.78c-5.672,0-10.953,2.893-14.004,7.675l-10.605,16.613c-24.224-49.34-69.531-86.663-124.572-99.869 c15.223-32.229-8.436-69.559-44.139-69.559c-26.904,0-48.792,21.889-48.792,48.792c0,7.433,1.678,14.48,4.664,20.792 c-41.915,10.091-77.611,34.071-102.836,65.753C51.179,191.352,0,228.05,0,279.671c0,32.541,20.737,60.78,50.582,71.149 c-1.973,9.733-9.849,36.592,11.231,62.538c12.16,14.965,30.194,23.615,49.477,23.734l270.786,1.654c0.134,0,0.266,0.001,0.4,0.001 c40.331-0.002,70.631-36.709,63.117-76.25l-2.728-14.359l66.505-104.193C516.42,232.901,508.466,218.393,495.367,218.393z M247.267,106.48c8.582,0,15.564,6.983,15.564,15.566c0,8.58-6.979,15.562-15.559,15.566c-0.003,0-0.006,0-0.009,0 c-8.581-0.002-15.562-6.984-15.562-15.566C231.701,113.463,238.685,106.48,247.267,106.48z M314.644,186.193H180.056 C222.315,165.715,272.335,165.713,314.644,186.193z M57.3,317.676c-14.233-6.838-24.074-21.483-24.074-38.006 c0-25.355,22.433-45.217,47.895-41.705C66.452,265.857,63.753,285.837,57.3,317.676z M412.388,333.49 c-3.156,3.811-4.449,8.833-3.525,13.695l4.087,21.514c3.635,19.131-11.041,36.821-30.479,36.821c-0.065,0-0.13,0-0.194-0.001 l-270.786-1.654c-19.553-0.119-34.099-18.063-30.221-37.192l14.585-71.953c5.761-28.422,19.194-54.321,38.994-75.3h225.034 c17.143,18.186,29.665,40.328,36.379,64.418c3.849,13.812,22.293,16.568,30.007,4.479l23.424-36.697h15.362 C406.988,342.588,414.943,330.401,412.388,333.49z"/> </g> </g> </g>
</svg>